<svg xmlns="http://www.w3.org/2000/svg" width="278" height="278" viewBox="0 0 278 278" fill="none"><rect width="278" height="278" fill="white"></rect><path d="M146.5 83L157.5 94.4545L145.5 106.5" stroke="#595959" stroke-width="17"></path><path d="M182.5 155L123.5 95L182.5 34L244.5 95L182.5 155Z" stroke="#0691DF" stroke-width="17"></path><path d="M206 144L244.5 182L184 244L145 206" stroke="#595959" stroke-width="17"></path><path d="M135 171.5L123 184L133.5 195" stroke="#595959" stroke-width="17"></path><path d="M72.5 133.5L34 95.5C52 78.7 83.5 47.5 97 34L135 71" stroke="#595959" stroke-width="17"></path><path d="M95.5 243L36.5 183L95.5 122L157.5 183L95.5 243Z" stroke="#0691DF" stroke-width="17"></path><path d="M135 118.5L96 157.5L84 146" stroke="#595959" stroke-width="17"></path><path d="M146.5 160.5L184 122.5L194 132.5" stroke="#595959" stroke-width="17"></path></svg>