<svg xmlns="http://www.w3.org/2000/svg" width="278" height="278" viewBox="0 0 278 278" fill="none"><rect width="278" height="278" fill="white"></rect><circle cx="139" cy="139" r="96.5" stroke="#595959" stroke-width="17"></circle><path d="M127 53.6289V16H157V53.6289L142.5 66L127 53.6289Z" fill="#0691DF" stroke="white" stroke-width="5" stroke-linecap="round"></path><path d="M222.13 124.096L259.758 124.426L259.495 154.425L221.867 154.095L209.624 139.487L222.13 124.096Z" fill="#0691DF" stroke="white" stroke-width="5" stroke-linecap="round"></path><path d="M53.6289 154H16L16 124H53.6289L66 138.5L53.6289 154Z" fill="#0691DF" stroke="white" stroke-width="5" stroke-linecap="round"></path><path d="M156.793 223.395L155.992 259.648L125.999 258.986L126.8 222.732L141.993 209.327L156.793 223.395Z" fill="#0691DF" stroke="white" stroke-width="5" stroke-linecap="round"></path><path d="M192 187.559H91C93.0043 178.442 95.0717 174.822 101.5 171.559L127 158.559V152.059C117.449 142.882 112.815 132.737 114.5 119.059C115.868 107.953 118.779 99.601 128.5 94.0593C137.83 88.7406 146.779 88.554 156 94.0593C165.448 99.7004 168.566 107.918 169 119.059C167.72 138.867 163.709 143.969 156 152.059V158.559L183 171.559C191.648 177.349 192.969 180.897 192 187.559Z" fill="#0691DF" stroke="#0691DF" stroke-linecap="round"></path></svg>