<svg xmlns="http://www.w3.org/2000/svg" width="278" height="278" viewBox="0 0 278 278" fill="none"><rect width="278" height="278" fill="white"></rect><circle cx="139" cy="140" r="96.5" stroke="#595959" stroke-width="17"></circle><path d="M200.325 229.346L183.88 209.952C182.238 208.016 182.308 205.157 184.041 203.303L192.533 194.221C194.255 192.381 197.076 192.108 199.118 193.586L224.69 212.099C227.641 214.235 227.39 218.708 224.219 220.501L206.6 230.464C204.511 231.646 201.877 231.176 200.325 229.346Z" fill="white"></path><path d="M78.1397 77.0766L60.822 57.7557C58.8001 55.4999 59.2327 51.9786 61.7405 50.2793L83.3466 35.6383C85.5343 34.1558 88.4979 34.6318 90.1114 36.7249L107.395 59.1462C109.282 61.5938 108.519 65.1498 105.794 66.6076L84.2216 78.1482C82.1896 79.2352 79.6779 78.7927 78.1397 77.0766Z" fill="white"></path><path d="M199.001 214.5L202 180.998L233.503 207.999L199.001 214.5Z" fill="#595959"></path><path d="M91.4977 56.0032L82.6149 90.1136L54.9893 56.0129L91.4977 56.0032Z" fill="#595959"></path><path d="M87.5 133.5L72 146.952H78.9437V182H96.0986V146.952H101L87.5 133.5Z" fill="#0691DF"></path><path d="M118.5 121.5L103 137.46H109.944V182H127.099V137.46H132.5L118.5 121.5Z" fill="#0691DF"></path><path d="M149.5 107L134 127.238H140.944V182H158.099V127.238H164.5L149.5 107Z" fill="#0691DF"></path><path d="M183 92.5L167 117.016H173.944V182H191.099V117.016H197.5L183 92.5Z" fill="#0691DF"></path></svg>