<svg xmlns="http://www.w3.org/2000/svg" width="278" height="278" viewBox="0 0 278 278" fill="none"><rect width="278" height="278" fill="white"></rect><path d="M48 118L58.4543 95.0629C59.2533 93.31 58.9742 91.2541 57.7368 89.7776L50.9622 81.6938C49.2889 79.6972 49.429 76.7504 51.2841 74.9216L75.2424 51.3023C77.0052 49.5645 79.7744 49.3781 81.7541 50.8641L88.8276 56.1734C90.1693 57.1804 91.9266 57.4475 93.5069 56.8846L114.821 49.2921C116.571 48.6689 117.831 47.1272 118.093 45.2886L119.801 33.3268C120.138 30.965 122.097 29.1703 124.479 29.0408L162 27" stroke="#0691DF" stroke-width="17"></path><path d="M159 50L184.264 58.291C185.652 58.7463 187.168 58.5724 188.417 57.8152L198.066 51.9621C199.979 50.8014 202.43 51.0534 204.068 52.5791L224.44 71.5639C226.166 73.1725 226.533 75.7689 225.32 77.7926L219.189 88.0192C218.406 89.3256 218.261 90.9178 218.796 92.3441L226.414 112.679C227.026 114.313 228.446 115.509 230.16 115.836L242.507 118.19C244.741 118.616 246.407 120.496 246.559 122.766L249 159" stroke="#595959" stroke-width="17"></path><path d="M117 251H153.297C156.059 251 158.297 248.761 158.297 246V235.334C158.297 233.289 159.542 231.451 161.441 230.692L185.018 221.265C186.728 220.581 188.676 220.893 190.087 222.076L198.383 229.031C200.357 230.686 203.265 230.57 205.101 228.764L226.927 207.3C228.693 205.564 228.922 202.796 227.464 200.793L220.757 191.575C219.733 190.167 219.514 188.329 220.18 186.721L230 163" stroke="#0691DF" stroke-width="17"></path><path d="M28 119V154.381C28 156.808 29.7433 158.884 32.1339 159.305L43.4776 161.3C45.1198 161.589 46.5099 162.677 47.1843 164.202L55.7871 183.656C56.5169 185.307 56.3008 187.223 55.2215 188.669L48.6654 197.455C47.1918 199.429 47.3765 202.183 49.1005 203.943L71.9993 227.323C73.5532 228.91 75.9673 229.281 77.9263 228.235L87.2622 223.25C88.4415 222.621 89.8238 222.49 91.1005 222.886L114 230" stroke="#595959" stroke-width="17"></path><path d="M172.99 126.805C173.514 132.151 172.762 137.545 170.795 142.543C168.828 147.541 165.702 152.001 161.676 155.555C158.139 158.684 155.995 163.088 155.995 167.811V168.25H122.323V167.814C122.323 163.074 120.15 158.667 116.606 155.522C113.007 152.337 110.126 148.424 108.155 144.041C106.183 139.657 105.167 134.905 105.172 130.099C105.172 110.588 121.611 94.9156 141.376 96.1766C157.865 97.2281 171.438 110.355 172.988 126.803L172.99 126.805Z" fill="white"></path><path d="M171.148 118.6C165.606 109.028 155.488 102.361 143.948 101.622C124.172 100.372 107.74 116.048 107.74 135.559C107.74 139.64 108.462 143.581 109.799 147.206C106.756 142.022 105.158 136.116 105.172 130.105C105.172 110.594 121.604 94.9176 141.38 96.1676C155.014 97.0481 166.663 106.16 171.148 118.6Z" fill="#595959"></path><path d="M153.379 168.246V185.838C153.38 186.452 153.26 187.061 153.025 187.628C152.791 188.196 152.446 188.712 152.012 189.146C151.578 189.581 151.062 189.925 150.495 190.16C149.927 190.395 149.319 190.515 148.705 190.514H129.589C128.975 190.515 128.366 190.395 127.799 190.16C127.231 189.925 126.716 189.581 126.282 189.147C125.847 188.713 125.503 188.197 125.268 187.63C125.034 187.062 124.913 186.454 124.914 185.84V168.246H153.379Z" fill="#0691DF"></path><path d="M130.906 190.516C131.274 192.434 132.298 194.164 133.803 195.408C135.308 196.653 137.2 197.334 139.153 197.334C141.107 197.334 142.998 196.653 144.504 195.408C146.009 194.164 147.033 192.434 147.401 190.516H130.906Z" fill="#0691DF"></path><path d="M174.813 126.628C173.187 109.331 158.858 95.4483 141.488 94.3398C138.306 94.135 135.11 94.3514 131.984 94.9832C131.748 95.0313 131.523 95.1254 131.323 95.2603C131.123 95.3953 130.951 95.5683 130.818 95.7695C130.684 95.9708 130.592 96.1963 130.546 96.4333C130.5 96.6702 130.501 96.9139 130.549 97.1505C130.597 97.3871 130.691 97.6119 130.826 97.8121C130.961 98.0122 131.134 98.1839 131.335 98.3172C131.536 98.4505 131.762 98.5429 131.999 98.589C132.236 98.6352 132.479 98.6342 132.716 98.5862C135.525 98.0182 138.397 97.8241 141.256 98.009C156.839 99.0016 169.694 111.456 171.155 126.974C172.133 137.377 168.233 147.29 160.449 154.176C156.812 157.393 154.585 161.79 154.207 166.41H145.405V150.27C145.405 149.782 145.212 149.315 144.867 148.97C144.522 148.625 144.055 148.432 143.567 148.432C143.08 148.432 142.612 148.625 142.267 148.97C141.923 149.315 141.729 149.782 141.729 150.27V166.41H136.573V137.788H141.727V143.972C141.727 144.46 141.921 144.927 142.265 145.272C142.61 145.617 143.078 145.81 143.565 145.81C144.053 145.81 144.52 145.617 144.865 145.272C145.21 144.927 145.403 144.46 145.403 143.972V137.788H148.207C149.467 137.789 150.7 137.416 151.748 136.716C152.796 136.015 153.613 135.02 154.095 133.855C154.577 132.69 154.702 131.409 154.455 130.173C154.208 128.937 153.599 127.802 152.707 126.912C150.295 124.54 146.17 124.503 143.698 126.934C142.513 128.131 141.849 129.749 141.852 131.434V134.112H136.455V131.434C136.455 129.742 135.801 128.143 134.589 126.912C132.163 124.524 128.028 124.522 125.582 126.932C124.696 127.825 124.095 128.96 123.853 130.194C123.612 131.428 123.741 132.706 124.225 133.867C124.708 135.027 125.525 136.019 126.571 136.717C127.617 137.414 128.846 137.786 130.104 137.787H132.896V166.408H124.1C123.72 161.796 121.479 157.389 117.823 154.145C114.424 151.128 111.702 147.425 109.838 143.28C107.974 139.135 107.009 134.642 107.006 130.097C107.009 123.86 108.823 117.758 112.229 112.532C115.635 107.307 120.485 103.184 126.19 100.663C126.636 100.466 126.986 100.1 127.162 99.6456C127.338 99.1909 127.327 98.6848 127.13 98.2387C126.933 97.7927 126.567 97.4431 126.112 97.2669C125.657 97.0908 125.151 97.1024 124.705 97.2994C118.348 100.108 112.944 104.703 109.149 110.525C105.354 116.348 103.333 123.147 103.33 130.097C103.33 140.331 107.723 150.097 115.38 156.895C118.622 159.77 120.481 163.75 120.481 167.814V168.248C120.481 168.735 120.674 169.203 121.019 169.548C121.364 169.893 121.831 170.086 122.319 170.086H123.082V174.351H121.041C120.554 174.351 120.086 174.545 119.742 174.889C119.397 175.234 119.203 175.702 119.203 176.189C119.203 176.677 119.397 177.144 119.742 177.489C120.086 177.834 120.554 178.027 121.041 178.027H123.082V181.921H121.041C120.554 181.921 120.086 182.114 119.742 182.459C119.397 182.804 119.203 183.271 119.203 183.759C119.203 184.246 119.397 184.714 119.742 185.059C120.086 185.404 120.554 185.597 121.041 185.597H123.082V185.842C123.085 187.555 123.762 189.198 124.968 190.415C126.173 191.633 127.81 192.326 129.523 192.345C130.228 194.336 131.532 196.061 133.256 197.281C134.98 198.502 137.039 199.159 139.152 199.163C141.264 199.159 143.323 198.501 145.047 197.281C146.771 196.06 148.075 194.336 148.78 192.345C150.493 192.326 152.13 191.632 153.335 190.415C154.541 189.198 155.218 187.555 155.222 185.842V185.597H157.262C157.749 185.597 158.217 185.404 158.562 185.059C158.907 184.714 159.1 184.246 159.1 183.759C159.1 183.271 158.907 182.804 158.562 182.459C158.217 182.114 157.749 181.921 157.262 181.921H155.222V178.024H157.262C157.749 178.024 158.217 177.83 158.562 177.485C158.907 177.141 159.1 176.673 159.1 176.185C159.1 175.698 158.907 175.23 158.562 174.886C158.217 174.541 157.749 174.347 157.262 174.347H155.222V170.082H155.988C156.476 170.082 156.943 169.889 157.288 169.544C157.633 169.199 157.826 168.732 157.826 168.244V167.807C157.826 163.737 159.67 159.774 162.887 156.928C171.558 149.255 175.905 138.213 174.813 126.628ZM145.528 131.434C145.528 130.509 145.957 129.878 146.297 129.533C147.341 128.507 149.12 128.542 150.108 129.511C150.468 129.878 150.898 130.509 150.898 131.434C150.898 132.91 149.69 134.112 148.207 134.112H145.528V131.434ZM132.778 134.112H130.102C129.39 134.113 128.706 133.832 128.201 133.33C127.696 132.828 127.411 132.146 127.409 131.434C127.409 130.509 127.841 129.878 128.181 129.531C128.687 129.031 129.369 128.749 130.08 128.745C130.792 128.741 131.477 129.016 131.988 129.511C132.35 129.878 132.778 130.509 132.778 131.434V134.112ZM139.152 195.487C136.817 195.487 134.722 194.252 133.556 192.353H144.745C144.158 193.309 143.336 194.1 142.357 194.649C141.378 195.197 140.274 195.486 139.152 195.487ZM148.71 188.676H129.593C128.03 188.676 126.758 187.404 126.758 185.842V185.597H151.545C151.545 187.564 150.198 188.676 148.71 188.676ZM151.545 181.921H126.758V178.024H151.545V181.921ZM151.545 174.351H126.758V170.086H151.545V174.351ZM94.6976 106.783L101.131 110.496C101.552 110.714 102.04 110.762 102.495 110.629C102.949 110.496 103.335 110.193 103.572 109.783C103.809 109.373 103.878 108.887 103.766 108.427C103.654 107.967 103.369 107.567 102.97 107.312L96.5358 103.599C96.3268 103.478 96.096 103.4 95.8567 103.368C95.6174 103.337 95.3742 103.353 95.141 103.415C94.9078 103.478 94.6892 103.586 94.4977 103.733C94.3062 103.88 94.1455 104.063 94.0248 104.272C93.9041 104.481 93.8258 104.712 93.7943 104.951C93.7627 105.19 93.7787 105.434 93.8412 105.667C93.9036 105.9 94.0114 106.118 94.1584 106.31C94.3053 106.501 94.4886 106.662 94.6976 106.783ZM98.5248 130.226C98.5248 129.738 98.3311 129.271 97.9864 128.926C97.6417 128.581 97.1741 128.388 96.6866 128.388H89.2601C88.7726 128.388 88.305 128.581 87.9603 128.926C87.6155 129.271 87.4219 129.738 87.4219 130.226C87.4219 130.713 87.6155 131.181 87.9603 131.526C88.305 131.87 88.7726 132.064 89.2601 132.064H96.6866C97.1741 132.064 97.6417 131.87 97.9864 131.526C98.3311 131.181 98.5248 130.713 98.5248 130.226ZM101.786 149.779L95.352 153.492C95.1428 153.613 94.9595 153.774 94.8124 153.965C94.6654 154.157 94.5575 154.376 94.4949 154.609C94.4324 154.842 94.4164 155.085 94.4478 155.325C94.4793 155.564 94.5576 155.795 94.6783 156.004C94.799 156.214 94.9597 156.397 95.1513 156.544C95.3428 156.691 95.5615 156.799 95.7948 156.861C96.028 156.924 96.2713 156.94 96.5107 156.909C96.7502 156.877 96.9811 156.799 97.1903 156.678L103.624 152.965C104.047 152.721 104.355 152.319 104.481 151.848C104.608 151.377 104.542 150.875 104.298 150.453C104.054 150.03 103.652 149.722 103.181 149.596C102.71 149.469 102.208 149.535 101.786 149.779ZM115.762 94.0402C116.273 94.9244 117.402 95.2167 118.273 94.7148C118.669 94.4841 118.963 94.1127 119.098 93.6745C119.232 93.2364 119.196 92.7638 118.997 92.3509C118.948 91.6211 115.442 85.7884 115.058 85.1229C114.937 84.9136 114.776 84.7302 114.585 84.5831C114.393 84.436 114.174 84.3281 113.941 84.2656C113.708 84.2031 113.464 84.1873 113.225 84.2189C112.985 84.2506 112.754 84.3292 112.545 84.4501C112.149 84.6812 111.855 85.0527 111.722 85.4908C111.588 85.929 111.624 86.4014 111.823 86.8141C111.872 87.5439 115.378 93.3748 115.762 94.0402ZM138.499 88.9501C138.987 88.9501 139.454 88.7565 139.799 88.4117C140.144 88.067 140.337 87.5994 140.337 87.1119V79.6781C140.337 79.1905 140.144 78.723 139.799 78.3783C139.454 78.0335 138.987 77.8398 138.499 77.8398C138.012 77.8398 137.544 78.0335 137.199 78.3783C136.855 78.723 136.661 79.1905 136.661 79.6781V87.1119C136.661 87.5994 136.855 88.067 137.199 88.4117C137.544 88.7565 138.012 88.9501 138.499 88.9501ZM158.725 94.7222C159.148 94.9659 159.65 95.0317 160.121 94.9052C160.593 94.7787 160.994 94.4702 161.238 94.0476C161.628 93.3711 165.131 87.5512 165.176 86.8086C165.375 86.3959 165.411 85.9233 165.278 85.4849C165.144 85.0465 164.85 84.6744 164.455 84.4428C164.246 84.3219 164.015 84.2434 163.775 84.2119C163.535 84.1804 163.292 84.1964 163.059 84.259C162.825 84.3217 162.606 84.4298 162.415 84.5771C162.223 84.7244 162.063 84.908 161.942 85.1174C161.552 85.7939 158.049 91.6137 158.005 92.3564C157.805 92.7691 157.768 93.2418 157.902 93.6803C158.035 94.1188 158.329 94.4909 158.725 94.7222ZM175.869 110.505L182.302 106.79C182.513 106.67 182.698 106.51 182.847 106.318C182.995 106.127 183.104 105.908 183.168 105.674C183.231 105.44 183.248 105.196 183.217 104.955C183.185 104.715 183.107 104.483 182.986 104.273C182.865 104.063 182.703 103.879 182.51 103.732C182.318 103.585 182.098 103.477 181.864 103.415C181.629 103.353 181.385 103.338 181.145 103.371C180.905 103.404 180.673 103.484 180.464 103.606L174.03 107.32C173.608 107.563 173.3 107.965 173.173 108.436C173.047 108.907 173.113 109.409 173.357 109.832C173.6 110.254 174.002 110.562 174.473 110.689C174.944 110.815 175.446 110.749 175.869 110.505ZM187.74 128.395H180.312C179.824 128.395 179.356 128.589 179.012 128.933C178.667 129.278 178.473 129.746 178.473 130.233C178.473 130.721 178.667 131.188 179.012 131.533C179.356 131.878 179.824 132.071 180.312 132.071H187.738C188.226 132.071 188.693 131.878 189.038 131.533C189.383 131.188 189.576 130.721 189.576 130.233C189.576 129.746 189.383 129.278 189.038 128.933C188.693 128.589 188.227 128.395 187.74 128.395ZM181.646 153.5L175.214 149.787C175.005 149.664 174.774 149.584 174.533 149.551C174.293 149.518 174.049 149.533 173.815 149.595C173.58 149.657 173.36 149.765 173.168 149.912C172.975 150.059 172.814 150.243 172.693 150.453C172.571 150.663 172.493 150.895 172.462 151.135C172.43 151.376 172.447 151.62 172.51 151.854C172.574 152.088 172.683 152.307 172.832 152.499C172.98 152.69 173.165 152.851 173.376 152.97L179.81 156.684C180.23 156.902 180.719 156.949 181.173 156.816C181.628 156.683 182.014 156.38 182.25 155.97C182.487 155.56 182.557 155.074 182.445 154.614C182.332 154.154 182.045 153.755 181.646 153.5Z" fill="#595959"></path><path d="M123.5 98.9193C125.167 97.6693 131.417 95.5859 133.917 95.5859" stroke="#595959" stroke-width="2"></path><path d="M126.414 98.5026L130.997 96.8359" stroke="#595959" stroke-width="2"></path></svg>